<?xml version="1.0" encoding="UTF-8" standalone="no"?>
<svg width="96px" height="24px" viewBox="0 0 96 24" version="1.1" xmlns="http://www.w3.org/2000/svg" xmlns:xlink="http://www.w3.org/1999/xlink" xmlns:sketch="http://www.bohemiancoding.com/sketch/ns">
    <!-- Generator: Sketch 3.3 (11970) - http://www.bohemiancoding.com/sketch -->
    <title>vscale-logo-black</title>
    <desc>Created with Sketch.</desc>
    <defs/>
    <g id="Layout:-server" stroke="none" stroke-width="1" fill="none" fill-rule="evenodd" sketch:type="MSPage">
        <g id="Платежи" sketch:type="MSArtboardGroup" transform="translate(-30.000000, -20.000000)">
            <g id="header" sketch:type="MSLayerGroup">
                <g id="vscale-logo-black" transform="translate(30.000000, 20.000000)" sketch:type="MSShapeGroup">
                    <g id="Page-1">
                        <g id="vscale-logo-black">
                            <path d="M31.7452638,20.2420085 L36.9226518,5.81322232 L33.1315589,5.81322232 L30.1326348,14.7534114 C29.9628843,15.3192461 29.7931339,16.0548313 29.6233835,16.9318752 L29.5668,16.9318752 L29.0575487,14.7534114 L26.0586245,5.81322232 L22.2675317,5.81322232 L27.5015032,20.2420085 L31.7452638,20.2420085 L31.7452638,20.2420085 Z M36.3541479,18.459629 C37.8253183,19.8742159 39.7208647,20.5815093 42.0124955,20.5815093 C43.6534162,20.5815093 44.9831279,20.1571333 45.9733387,19.3366729 C46.9635496,18.4879208 47.4728008,17.4128347 47.4728008,16.1397065 C47.5010925,13.395408 44.8982527,12.320322 42.8329558,11.669612 C41.4466607,11.1886525 40.3149912,10.5945259 40.3149912,9.77406558 C40.3149912,8.84043821 40.9939929,8.38777045 42.3237046,8.38777045 C43.5968328,8.38777045 45.1528783,8.92531344 45.9733387,9.63260688 L47.3030504,7.11464223 C46.0582139,6.01126446 44.4455849,5.47372147 42.4368715,5.47372147 C40.8525342,5.47372147 39.5228225,5.8698058 38.4760283,6.63368268 C37.429234,7.3975596 36.9199827,8.44435388 36.9199827,9.80235732 C36.8633992,12.5183641 39.5511143,13.6783254 41.5598277,14.3290353 C42.9461228,14.8099949 44.0777923,15.4041213 44.0777923,16.2245817 C44.0777923,17.1299173 43.3422071,17.6674604 42.0690789,17.6674604 C40.4847417,17.6674604 39.1267383,17.1299173 37.966777,16.083123 L36.3541479,18.459629 L36.3541479,18.459629 Z M48.0642583,13.0276154 C48.0642583,15.1777875 48.7715517,16.9884587 50.2144303,18.4313373 C51.6573089,19.8742159 53.5528554,20.5815093 55.9010696,20.5815093 C58.1927003,20.5815093 60.484331,19.6761737 61.8423345,18.2332951 L60.4560393,15.6870387 C59.1829111,16.9035834 57.7683242,17.5260017 56.2122787,17.5260017 C54.882567,17.5260017 53.7791892,17.1016256 52.9587288,16.2245817 C52.1382685,15.3475379 51.7138924,14.2724518 51.7138924,12.9993237 C51.7138924,11.7261954 52.1099767,10.6794012 52.9304371,9.83064906 C53.7508975,8.95360518 54.7976918,8.52922911 56.0991117,8.52922911 C57.5419904,8.52922911 58.7868268,9.0384804 59.8336211,10.0852747 L61.4462501,7.62389353 C60.1165384,6.18101491 57.9663664,5.47372147 55.9010696,5.47372147 C53.5528554,5.47372147 51.6573089,6.20930665 50.2144303,7.68047701 C48.7715517,9.12335563 48.0642583,10.9057351 48.0642583,13.0276154 L48.0642583,13.0276154 L48.0642583,13.0276154 Z M62.2350903,16.2528735 C62.2350903,17.5260017 62.6877581,18.5727959 63.5930937,19.3932563 C64.526721,20.185425 65.6583905,20.5815093 66.9881022,20.5815093 C68.9119402,20.5815093 70.6377362,19.534715 71.5430719,17.9786695 L71.5996554,17.9786695 L71.5147804,19.0254638 L71.5147804,20.2420085 L74.8532054,20.2420085 L74.8532054,11.2169442 C74.8532054,7.59560179 72.618158,5.47372147 68.8553567,5.47372147 C67.8085625,5.47372147 66.7617683,5.64347188 65.714974,6.01126446 C64.6681797,6.35076531 63.8194276,6.77514138 63.1970093,7.25610094 L64.526721,9.83064906 C65.8847244,8.8970217 67.2144362,8.44435388 68.5441478,8.44435388 C70.3548187,8.44435388 71.2601545,9.29310603 71.2601545,10.9906103 L71.2601545,11.1886525 L70.6377362,11.1886525 C68.7421897,11.1886525 67.1012692,11.4149863 65.2623062,12.093988 C63.451635,12.744698 62.2350903,14.2158683 62.2350903,16.2528735 L62.2350903,16.2528735 L62.2350903,16.2528735 Z M65.7998492,15.9416644 C65.7998492,14.4139105 67.4124781,13.6500336 70.6660281,13.6500336 L71.2884464,13.6500336 L71.2884464,14.0461179 C71.2884464,14.9797453 70.9772371,15.8567892 70.3548187,16.6489578 C69.7324009,17.4411264 68.9402321,17.8372108 67.9783129,17.8372108 C66.6203096,17.8372108 65.7998492,16.9601669 65.7998492,15.9416644 L65.7998492,15.9416644 L65.7998492,15.9416644 Z M76.23815,15.7436222 C76.23815,17.6957521 76.8039848,19.0537555 77.7376125,19.647882 C78.6712397,20.2137167 79.519992,20.3834671 80.6799531,20.3834671 C80.9345786,20.3834671 81.3023714,20.3551754 81.8116223,20.298592 L81.8116223,17.1582091 C81.6701638,17.1865008 81.5004134,17.1865008 81.2740795,17.1865008 C80.2555768,17.1865008 79.8029089,16.7055413 79.8029089,15.2060792 L79.8029089,0.154874794 L76.23815,0.154874794 L76.23815,15.7436222 L76.23815,15.7436222 Z M82.0352875,13.0276154 C82.0352875,15.1494957 82.7425808,16.9318752 84.1854594,18.4030455 C85.6283379,19.8459242 87.4955929,20.5815093 89.8155152,20.5815093 C91.9373955,20.5815093 94.1724429,19.7893407 95.6153214,18.5162125 L94.2007344,15.9416644 C92.8710228,16.9884587 91.5130192,17.5260017 90.0701406,17.5260017 C87.7785103,17.5260017 85.9678388,16.1114148 85.7415049,13.7066171 L95.6719049,13.7066171 C95.7567799,13.1124906 95.7850719,12.6315311 95.7850719,12.320322 C95.7850719,10.3399003 95.2192371,8.69897955 94.0875674,7.42585134 C92.9558982,6.12443143 91.3998527,5.47372147 89.3911393,5.47372147 C87.2126754,5.47372147 85.4585875,6.18101491 84.0722924,7.59560179 C82.7142888,8.98189692 82.0352875,10.7925681 82.0352875,13.0276154 L82.0352875,13.0276154 L82.0352875,13.0276154 Z M85.8263804,11.2452359 C86.1658808,9.40627299 87.4955929,8.18972826 89.3062638,8.18972826 C90.9754763,8.18972826 92.1637295,9.34968951 92.192021,11.2452359 L85.8263804,11.2452359 L85.8263804,11.2452359 Z M16.5951906,15.8401485 L16.5951908,20.2495189 L10.1,23.9995191 L0.140707856,18.2495191 L0.140707856,6.74951905 L6.63423234,3.00048095 L9.76089194,4.80505485 L3.60480976,8.70640869 L3.60480976,16.2064087 L10.1000003,19.9564087 L16.5951906,15.8401485 L16.5951906,15.8401485 Z" id="vscale" fill="#424951"/>
                            <path d="M20.0592921,18.25 L20.0592921,6.75 L10.1,1 L6.63423234,3.00096189 L16.5951905,8.75 L16.5951905,12.823596 L16.5951908,20.2564087 L20.0592921,18.25 L20.0592921,18.25 Z" id="vector" fill="#26BCF1"/>
                        </g>
                    </g>
                </g>
            </g>
        </g>
    </g>
</svg>